# xmcd
#
# Track frame offsets: 
#        183
#        28983
#        55958
#        80458
#        105883
#        132633
#        165283
#        189483
#        212783
#        253383
#        276933
#        299733
#        312908
#
# Disc length: 4566 seconds
#
# Revision: 1
# Processed by: cddbd v1.5.1PL0 Copyright (c) Steve Scherf et al.
# Submitted via: ExactAudioCopy v0.95a4
#
DISCID=c711d40d
DTITLE=Eric Clapton - Silver and Gold Collection [CD2] (Eric Clapton 
DTITLE=Live)
DYEAR=1900
DGENRE=Rock
TTITLE0=White Room
TTITLE1=Crossroads
TTITLE2=Miss You
TTITLE3=Run
TTITLE4=Holy Mother
TTITLE5=Tearing Us Apart
TTITLE6=In the Air Tonight
TTITLE7=Sunshine of Your Love
TTITLE8=Layla
TTITLE9=Wonderfull Tonight
TTITLE10=She's Waiting
TTITLE11=Forever Man
TTITLE12=Cocaine
EXTD=
EXTT0=
EXTT1=
EXTT2=
EXTT3=
EXTT4=
EXTT5=
EXTT6=
EXTT7=
EXTT8=
EXTT9=
EXTT10=
EXTT11=
EXTT12=
PLAYORDER=
